<svg xmlns="http://www.w3.org/2000/svg" xmlns:xlink="http://www.w3.org/1999/xlink" width="95.187mm" height="69.215mm" viewBox="4037.6 3035.5 149.9 109"><title></title><style type="text/css">
*[layerid="1"] {stroke:#000000;fill:#000000;}
*[layerid="2"] {stroke:#000000;fill:#000000;}
*[layerid="3"] {stroke:#000000;fill:#000000;}
*[layerid="4"] {stroke:#000000;fill:#000000;}
*[layerid="5"] {stroke:#000000;fill:#000000;}
*[layerid="6"] {stroke:#000000;fill:#000000;}
*[layerid="7"] {stroke:#000000;fill:#000000;}
*[layerid="8"] {stroke:#000000;fill:#000000;}
*[layerid="9"] {stroke:#000000;fill:#000000;}
*[layerid="10"] {stroke:#000000;fill:#000000;}
*[layerid="11"] {stroke:#000000;fill:#000000;}
*[layerid="12"] {stroke:#000000;fill:#000000;}
*[layerid="13"] {stroke:#000000;fill:#000000;}
*[layerid="14"] {stroke:#000000;fill:#000000;}
*[layerid="15"] {stroke:#000000;fill:#000000;}
*[layerid="19"] {stroke:#000000;fill:#000000;}
*[layerid="21"] {stroke:#000000;fill:#000000;}
*[layerid="22"] {stroke:#000000;fill:#000000;}
*[layerid="23"] {stroke:#000000;fill:#000000;}
*[layerid="24"] {stroke:#000000;fill:#000000;}
*[layerid="25"] {stroke:#000000;fill:#000000;}
*[layerid="26"] {stroke:#000000;fill:#000000;}
*[layerid="27"] {stroke:#000000;fill:#000000;}
*[layerid="28"] {stroke:#000000;fill:#000000;}
*[layerid="29"] {stroke:#000000;fill:#000000;}
*[layerid="30"] {stroke:#000000;fill:#000000;}
*[layerid="31"] {stroke:#000000;fill:#000000;}
*[layerid="32"] {stroke:#000000;fill:#000000;}
*[layerid="33"] {stroke:#000000;fill:#000000;}
*[layerid="34"] {stroke:#000000;fill:#000000;}
*[layerid="35"] {stroke:#000000;fill:#000000;}
*[layerid="36"] {stroke:#000000;fill:#000000;}
*[layerid="37"] {stroke:#000000;fill:#000000;}
*[layerid="38"] {stroke:#000000;fill:#000000;}
*[layerid="39"] {stroke:#000000;fill:#000000;}
*[layerid="40"] {stroke:#000000;fill:#000000;}
*[layerid="41"] {stroke:#000000;fill:#000000;}
*[layerid="42"] {stroke:#000000;fill:#000000;}
*[layerid="43"] {stroke:#000000;fill:#000000;}
*[layerid="44"] {stroke:#000000;fill:#000000;}
*[layerid="45"] {stroke:#000000;fill:#000000;}
*[layerid="46"] {stroke:#000000;fill:#000000;}
*[layerid="47"] {stroke:#000000;fill:#000000;}
*[layerid="48"] {stroke:#000000;fill:#000000;}
*[layerid="49"] {stroke:#000000;fill:#000000;}
*[layerid="50"] {stroke:#000000;fill:#000000;}
*[layerid="51"] {stroke:#000000;fill:#000000;}
*[layerid="52"] {stroke:#000000;fill:#000000;}
*[layerid="99"] {stroke:#000000;fill:#000000;}
*[layerid="100"] {stroke:#000000;fill:#000000;}
*[layerid="101"] {stroke:#000000;fill:#000000;}
*[layerid="Hole"] {stroke:#000000;fill:#000000;}
*[layerid="DRCError"] {stroke:#000000;fill:#000000;}
*[fill="none"] {fill: none;}
*[stroke="none"] {stroke: none;}
path, polyline, polygon, line {stroke-linecap:round;}
g[c_partid="part_pad"][layerid="1"] ellipse:not([c_etype="pad_outer"]) {fill:#000000;}
g[c_partid="part_pad"][layerid="1"] polygon:not([c_etype="pad_outer"]) {fill:#000000;}
g[c_partid="part_pad"][layerid="1"] polyline:not([c_etype="pad_outer"]) {stroke:#000000;}
g[c_partid="part_pad"][layerid="2"] ellipse:not([c_etype="pad_outer"]) {fill:#000000;}
g[c_partid="part_pad"][layerid="2"] polygon:not([c_etype="pad_outer"]) {fill:#000000;}
g[c_partid="part_pad"][layerid="2"] polyline:not([c_etype="pad_outer"]) {stroke:#000000;}
g[c_partid="part_pad"][layerid="11"] ellipse:not([c_etype="pad_outer"]) {fill:#000000;}
g[c_partid="part_pad"][layerid="11"] polygon:not([c_etype="pad_outer"]) {fill:#000000;}
g[c_partid="part_pad"][layerid="11"] polyline:not([c_etype="pad_outer"]) {stroke:#000000;}
g[c_partid="part_pad"][layerid="11"] circle {fill:#FFFFFF;}
g[c_partid="part_pad"][layerid="11"] > polyline:nth-of-type(2) {stroke:#FFFFFF;}
g[c_partid="part_pad"][layerid="11"][c_shape="ELLIPSE"]  polyline:nth-last-of-type(1) {stroke:#FFFFFF;}
g[c_partid="part_pad"][layerid="11"][c_shape="RECT"]  polyline:nth-last-of-type(1) {stroke:#FFFFFF;}
g[c_partid="part_pad"][layerid="11"][c_shape="POLYGON"]  polyline:nth-last-of-type(1) {stroke:#FFFFFF;}
g[c_partid="part_via"] > * + circle, #gCurParts g[c_partid="part_via"] > * + circle {fill:#FFFFFF;}
g[c_partid="part_pad"] > polygon[c_etype="pad_outer"], #gCurParts g[c_partid="part_pad"] > polygon[c_etype="pad_outer"] {stroke-linejoin: round;stroke-miterlimit: 100;}
g[c_partid="part_hole"] > circle {fill: #FFFFFF;}path, polyline, polygon {stroke-linejoin:round;}
rect, circle, ellipse, polyline, line, polygon, path {shape-rendering:crispEdges;}
</style>
<rect x="4037.6" y="3035.5" width="149.9" height="109" fill="#FFFFFF" stroke="none"/><polyline points="4145.5001 3050.001 4145.5001 3109.06 4147.9231 3111.483" stroke-width="1"  stroke-linecap="round" fill="none" layerid="2" net="MOTOR_4_SIGNAL" id="gge2004" locked="0" /><polyline points="4124.5001 3050.001 4124.5001 3104.736 4135.7981 3116.034" stroke-width="1"  stroke-linecap="round" fill="none" layerid="2" net="MOTOR_3_SIGNAL" id="gge1992" locked="0" /><polyline points="4170.0001 3092.5 4162.5001 3092.5" stroke-width="1"  stroke-linecap="round" fill="none" layerid="2" net="VCC" id="gge1953" locked="0" /><polyline points="4162.0001 3129 4162.5001 3128.5 4162.5001 3092.5" stroke-width="1"  stroke-linecap="round" fill="none" layerid="2" net="VCC" id="gge1950" locked="0" /><polyline points="4162.5001 3092.5 4162.5001 3051.001" stroke-width="1"  stroke-linecap="round" fill="none" layerid="2" net="VCC" id="gge1947" locked="0" /><polyline points="4148.9371 3107.26 4131.4371 3107.26" stroke-width="1"  stroke-linecap="round" fill="none" layerid="1" net="GND" id="gge2049" locked="0" /><polyline points="4148.9371 3069.26 4152.4971 3069.26" stroke-width="1"  stroke-linecap="round" fill="none" layerid="1" net="GND" id="gge2046" locked="0" /><polyline points="4054.5001 3084 4056.8381 3081.662 4097.0001 3081.662" stroke-width="1"  stroke-linecap="round" fill="none" layerid="1" net="GND" id="gge2043" locked="0" /><polyline points="4097.0001 3100.477 4121.0941 3100.477 4127.8771 3107.26" stroke-width="1"  stroke-linecap="round" fill="none" layerid="1" net="GND" id="gge2040" locked="0" /><polyline points="4131.4371 3107.26 4127.8771 3107.26" stroke-width="1"  stroke-linecap="round" fill="none" layerid="1" net="GND" id="gge2037" locked="0" /><polyline points="4157.2461 3074.009 4152.4971 3069.26" stroke-width="1"  stroke-linecap="round" fill="none" layerid="1" net="GND" id="gge2034" locked="0" /><polyline points="4170.0001 3082.5 4161.5091 3074.009 4157.2461 3074.009" stroke-width="1"  stroke-linecap="round" fill="none" layerid="1" net="GND" id="gge2031" locked="0" /><polyline points="4097.0001 3081.662 4097.0001 3089.292" stroke-width="1"  stroke-linecap="round" fill="none" layerid="1" net="GND" id="gge2028" locked="0" /><polyline points="4097.0001 3089.292 4097.0001 3100.477" stroke-width="1"  stroke-linecap="round" fill="none" layerid="1" net="GND" id="gge2025" locked="0" /><polyline points="4097.0001 3089.292 4123.3781 3089.292 4136.1521 3076.518" stroke-width="1"  stroke-linecap="round" fill="none" layerid="1" net="GND" id="gge2022" locked="0" /><polyline points="4157.2461 3074.009 4152.0311 3079.224 4138.8581 3079.224 4136.1521 3076.518" stroke-width="1"  stroke-linecap="round" fill="none" layerid="1" net="GND" id="gge2019" locked="0" /><polyline points="4136.1521 3076.518 4130.4371 3070.803 4130.4371 3069.26" stroke-width="1"  stroke-linecap="round" fill="none" layerid="1" net="GND" id="gge2016" locked="0" /><polyline points="4107.0001 3115.153 4098.8621 3107.015 4067.5141 3107.015 4054.5001 3094.001" stroke-width="1"  stroke-linecap="round" fill="none" layerid="1" net="MCU_PWR" id="gge2013" locked="0" /><polyline points="4107.0001 3123.338 4107.0001 3115.153" stroke-width="1"  stroke-linecap="round" fill="none" layerid="1" net="MCU_PWR" id="gge2010" locked="0" /><polyline points="4147.9231 3111.483 4148.9371 3112.497 4148.9371 3114.74" stroke-width="1"  stroke-linecap="round" fill="none" layerid="1" net="MOTOR_4_SIGNAL" id="gge2001" locked="0" /><polyline points="4131.4371 3114.74 4134.9971 3114.74" stroke-width="1"  stroke-linecap="round" fill="none" layerid="1" net="MOTOR_3_SIGNAL" id="gge1995" locked="0" /><polyline points="4135.7981 3116.034 4134.9971 3115.233 4134.9971 3114.74" stroke-width="1"  stroke-linecap="round" fill="none" layerid="1" net="MOTOR_3_SIGNAL" id="gge1989" locked="0" /><polyline points="4105.0001 3050.001 4117.2001 3050.001 4134.8031 3067.604 4134.8031 3072.543 4139.0001 3076.74 4148.9371 3076.74" stroke-width="1"  stroke-linecap="round" fill="none" layerid="1" net="MOTOR_2_SIGNAL" id="gge1986" locked="0" /><polyline points="4126.8771 3076.74 4126.5471 3076.41 4126.5471 3067.257 4114.9841 3055.694 4090.6931 3055.694 4085.5001 3050.501" stroke-width="1"  stroke-linecap="round" fill="none" layerid="1" net="MOTOR_1_SIGNAL" id="gge1983" locked="0" /><polyline points="4130.4371 3076.74 4126.8771 3076.74" stroke-width="1"  stroke-linecap="round" fill="none" layerid="1" net="MOTOR_1_SIGNAL" id="gge1980" locked="0" /><polyline points="4144.6231 3111 4144.6231 3116.116 4150.9401 3122.433 4164.4331 3122.433 4171.0001 3129" stroke-width="1"  stroke-linecap="round" fill="none" layerid="1" net="M4-" id="gge1977" locked="0" /><polyline points="4141.0631 3111 4144.6231 3111" stroke-width="1"  stroke-linecap="round" fill="none" layerid="1" net="M4-" id="gge1974" locked="0" /><polyline points="4144.6231 3073 4144.6231 3068.004 4153.6571 3058.97 4163.5311 3058.97 4171.5001 3051.001" stroke-width="1"  stroke-linecap="round" fill="none" layerid="1" net="M2-" id="gge1971" locked="0" /><polyline points="4141.0631 3073 4144.6231 3073" stroke-width="1"  stroke-linecap="round" fill="none" layerid="1" net="M2-" id="gge1968" locked="0" /><polyline points="4120.0031 3111 4120.0031 3122.766 4111.2381 3131.531 4066.0311 3131.531 4063.5001 3129" stroke-width="1"  stroke-linecap="round" fill="none" layerid="1" net="M3-" id="gge1965" locked="0" /><polyline points="4123.5631 3111 4120.0031 3111" stroke-width="1"  stroke-linecap="round" fill="none" layerid="1" net="M3-" id="gge1962" locked="0" /><polyline points="4122.5631 3073 4122.5631 3066.176 4114.1411 3057.754 4069.2531 3057.754 4063.5001 3052.001" stroke-width="1"  stroke-linecap="round" fill="none" layerid="1" net="M1-" id="gge1959" locked="0" /><polyline points="4087.0001 3123.338 4087.0001 3115.153" stroke-width="1"  stroke-linecap="round" fill="none" layerid="1" net="VCC" id="gge1956" locked="0" /><polyline points="4162.0001 3129 4157.7061 3133.294 4058.7941 3133.294 4054.5001 3129" stroke-width="1"  stroke-linecap="round" fill="none" layerid="1" net="VCC" id="gge1944" locked="0" /><polyline points="4068.3471 3115.153 4050.4031 3097.209 4050.4031 3056.098 4054.5001 3052.001" stroke-width="1"  stroke-linecap="round" fill="none" layerid="1" net="VCC" id="gge1941" locked="0" /><polyline points="4087.0001 3115.153 4068.3471 3115.153" stroke-width="1"  stroke-linecap="round" fill="none" layerid="1" net="VCC" id="gge1938" locked="0" /><polyline points="4068.3471 3115.153 4054.5001 3129" stroke-width="1"  stroke-linecap="round" fill="none" layerid="1" net="VCC" id="gge1935" locked="0" /><g c_partid="part_pad" c_etype="pinpart" c_origin="4130.437,3076.74" layerid="1" number="1" net="MOTOR_1_SIGNAL" plated ="Y"  id="gge63" locked="0" c_rotation="0" c_width="4.9213" c_height="2.7559" title="MOTOR_1_SIGNAL" c_shape="RECT" pasteexpansion="0.0000" solderexpansion="0.2000"><polygon  c_etype="pad_shell" points="4127.9764 3075.362 4132.8976 3075.362 4132.8976 3078.118 4127.9764 3078.118" layerid="1" stroke-width="0" /><circle c_etype="pad_hole" cx="4130.4368" cy="3076.7402" r="0" layerid="1" stroke-width="0"/></g><g c_partid="part_pad" c_etype="pinpart" c_origin="4130.437,3069.26" layerid="1" number="2" net="GND" plated ="Y"  id="gge78" locked="0" c_rotation="0" c_width="4.9213" c_height="2.7559" title="GND" c_shape="RECT" pasteexpansion="0.0000" solderexpansion="0.2000"><polygon  c_etype="pad_shell" points="4127.9764 3067.8821 4132.8976 3067.8821 4132.8976 3070.638 4127.9764 3070.638" layerid="1" stroke-width="0" /><circle c_etype="pad_hole" cx="4130.4368" cy="3069.2598" r="0" layerid="1" stroke-width="0"/></g><g c_partid="part_pad" c_etype="pinpart" c_origin="4122.563,3073" layerid="1" number="3" net="M1-" plated ="Y"  id="gge93" locked="0" c_rotation="0" c_width="4.9213" c_height="2.7559" title="M1-" c_shape="RECT" pasteexpansion="0.0000" solderexpansion="0.2000"><polygon  c_etype="pad_shell" points="4120.1024 3071.6221 4125.0236 3071.6221 4125.0236 3074.378 4120.1024 3074.378" layerid="1" stroke-width="0" /><circle c_etype="pad_hole" cx="4122.5632" cy="3073" r="0" layerid="1" stroke-width="0"/></g><g c_partid="part_pad" c_etype="pinpart" c_origin="4148.937,3076.74" layerid="1" number="1" net="MOTOR_2_SIGNAL" plated ="Y"  id="gge168" locked="0" c_rotation="0" c_width="4.9213" c_height="2.7559" title="MOTOR_2_SIGNAL" c_shape="RECT" pasteexpansion="0.0000" solderexpansion="0.2000"><polygon  c_etype="pad_shell" points="4146.4764 3075.362 4151.3976 3075.362 4151.3976 3078.118 4146.4764 3078.118" layerid="1" stroke-width="0" /><circle c_etype="pad_hole" cx="4148.9368" cy="3076.7402" r="0" layerid="1" stroke-width="0"/></g><g c_partid="part_pad" c_etype="pinpart" c_origin="4148.937,3069.26" layerid="1" number="2" net="GND" plated ="Y"  id="gge183" locked="0" c_rotation="0" c_width="4.9213" c_height="2.7559" title="GND" c_shape="RECT" pasteexpansion="0.0000" solderexpansion="0.2000"><polygon  c_etype="pad_shell" points="4146.4764 3067.8821 4151.3976 3067.8821 4151.3976 3070.638 4146.4764 3070.638" layerid="1" stroke-width="0" /><circle c_etype="pad_hole" cx="4148.9368" cy="3069.2598" r="0" layerid="1" stroke-width="0"/></g><g c_partid="part_pad" c_etype="pinpart" c_origin="4141.063,3073" layerid="1" number="3" net="M2-" plated ="Y"  id="gge198" locked="0" c_rotation="0" c_width="4.9213" c_height="2.7559" title="M2-" c_shape="RECT" pasteexpansion="0.0000" solderexpansion="0.2000"><polygon  c_etype="pad_shell" points="4138.6024 3071.6221 4143.5236 3071.6221 4143.5236 3074.378 4138.6024 3074.378" layerid="1" stroke-width="0" /><circle c_etype="pad_hole" cx="4141.0632" cy="3073" r="0" layerid="1" stroke-width="0"/></g><g c_partid="part_pad" c_etype="pinpart" c_origin="4131.437,3114.74" layerid="1" number="1" net="MOTOR_3_SIGNAL" plated ="Y"  id="gge273" locked="0" c_rotation="0" c_width="4.9213" c_height="2.7559" title="MOTOR_3_SIGNAL" c_shape="RECT" pasteexpansion="0.0000" solderexpansion="0.2000"><polygon  c_etype="pad_shell" points="4128.9764 3113.362 4133.8976 3113.362 4133.8976 3116.118 4128.9764 3116.118" layerid="1" stroke-width="0" /><circle c_etype="pad_hole" cx="4131.4368" cy="3114.7402" r="0" layerid="1" stroke-width="0"/></g><g c_partid="part_pad" c_etype="pinpart" c_origin="4131.437,3107.26" layerid="1" number="2" net="GND" plated ="Y"  id="gge288" locked="0" c_rotation="0" c_width="4.9213" c_height="2.7559" title="GND" c_shape="RECT" pasteexpansion="0.0000" solderexpansion="0.2000"><polygon  c_etype="pad_shell" points="4128.9764 3105.8821 4133.8976 3105.8821 4133.8976 3108.638 4128.9764 3108.638" layerid="1" stroke-width="0" /><circle c_etype="pad_hole" cx="4131.4368" cy="3107.2598" r="0" layerid="1" stroke-width="0"/></g><g c_partid="part_pad" c_etype="pinpart" c_origin="4123.563,3111" layerid="1" number="3" net="M3-" plated ="Y"  id="gge303" locked="0" c_rotation="0" c_width="4.9213" c_height="2.7559" title="M3-" c_shape="RECT" pasteexpansion="0.0000" solderexpansion="0.2000"><polygon  c_etype="pad_shell" points="4121.1024 3109.6221 4126.0236 3109.6221 4126.0236 3112.378 4121.1024 3112.378" layerid="1" stroke-width="0" /><circle c_etype="pad_hole" cx="4123.5632" cy="3111" r="0" layerid="1" stroke-width="0"/></g><g c_partid="part_pad" c_etype="pinpart" c_origin="4148.937,3114.74" layerid="1" number="1" net="MOTOR_4_SIGNAL" plated ="Y"  id="gge378" locked="0" c_rotation="0" c_width="4.9213" c_height="2.7559" title="MOTOR_4_SIGNAL" c_shape="RECT" pasteexpansion="0.0000" solderexpansion="0.2000"><polygon  c_etype="pad_shell" points="4146.4764 3113.362 4151.3976 3113.362 4151.3976 3116.118 4146.4764 3116.118" layerid="1" stroke-width="0" /><circle c_etype="pad_hole" cx="4148.9368" cy="3114.7402" r="0" layerid="1" stroke-width="0"/></g><g c_partid="part_pad" c_etype="pinpart" c_origin="4148.937,3107.26" layerid="1" number="2" net="GND" plated ="Y"  id="gge393" locked="0" c_rotation="0" c_width="4.9213" c_height="2.7559" title="GND" c_shape="RECT" pasteexpansion="0.0000" solderexpansion="0.2000"><polygon  c_etype="pad_shell" points="4146.4764 3105.8821 4151.3976 3105.8821 4151.3976 3108.638 4146.4764 3108.638" layerid="1" stroke-width="0" /><circle c_etype="pad_hole" cx="4148.9368" cy="3107.2598" r="0" layerid="1" stroke-width="0"/></g><g c_partid="part_pad" c_etype="pinpart" c_origin="4141.063,3111" layerid="1" number="3" net="M4-" plated ="Y"  id="gge408" locked="0" c_rotation="0" c_width="4.9213" c_height="2.7559" title="M4-" c_shape="RECT" pasteexpansion="0.0000" solderexpansion="0.2000"><polygon  c_etype="pad_shell" points="4138.6024 3109.6221 4143.5236 3109.6221 4143.5236 3112.378 4138.6024 3112.378" layerid="1" stroke-width="0" /><circle c_etype="pad_hole" cx="4141.0632" cy="3111" r="0" layerid="1" stroke-width="0"/></g><g c_partid="part_pad" c_etype="pinpart" c_origin="4097,3081.662" layerid="1" number="2" net="GND" plated ="Y"  id="gge552" locked="0" c_rotation="270" c_width="35.4331" c_height="43.3071" title="GND" c_shape="RECT" pasteexpansion="0.0000" solderexpansion="0.2000"><polygon  c_etype="pad_shell" points="4118.6535 3063.9453 4118.6535 3099.3783 4075.3465 3099.3783 4075.3465 3063.9453" layerid="1" stroke-width="0" /><circle c_etype="pad_hole" cx="4096.9996" cy="3081.6614" r="0" layerid="1" stroke-width="0"/></g><g c_partid="part_pad" c_etype="pinpart" c_origin="4107,3123.338" layerid="1" number="3" net="MCU_PWR" plated ="Y"  id="gge567" locked="0" c_rotation="270" c_width="14.1732" c_height="6.6929" title="MCU_PWR" c_shape="RECT" pasteexpansion="0.0000" solderexpansion="0.2000"><polygon  c_etype="pad_shell" points="4110.3465 3116.2517 4110.3465 3130.4249 4103.6535 3130.4249 4103.6535 3116.2517" layerid="1" stroke-width="0" /><circle c_etype="pad_hole" cx="4106.9996" cy="3123.3386" r="0" layerid="1" stroke-width="0"/></g><g c_partid="part_pad" c_etype="pinpart" c_origin="4087,3123.338" layerid="1" number="1" net="VCC" plated ="Y"  id="gge582" locked="0" c_rotation="270" c_width="14.1732" c_height="6.6929" title="VCC" c_shape="RECT" pasteexpansion="0.0000" solderexpansion="0.2000"><polygon  c_etype="pad_shell" points="4090.3465 3116.2517 4090.3465 3130.4249 4083.6535 3130.4249 4083.6535 3116.2517" layerid="1" stroke-width="0" /><circle c_etype="pad_hole" cx="4086.9996" cy="3123.3386" r="0" layerid="1" stroke-width="0"/></g><g c_partid="part_pad" c_etype="pinpart" c_origin="4054.5,3052.001" layerid="11" number="1" net="VCC" plated ="Y"  id="gge685" locked="0" c_rotation="0" c_width="6" c_height="6" title="VCC" c_shape="ELLIPSE" pasteexpansion="0" solderexpansion="0.2008"><ellipse c_etype="pad_shell" cx="4054.5" cy="3052.001" rx="3" ry="3" layerid="11" stroke-width="0"/><circle c_etype="pad_hole" cx="4054.4999" cy="3052.0007" r="1.7992" layerid="11" stroke-width="0"/></g><g c_partid="part_pad" c_etype="pinpart" c_origin="4054.5,3129" layerid="11" number="2" net="VCC" plated ="Y"  id="gge703" locked="0" c_rotation="0" c_width="6" c_height="6" title="VCC" c_shape="ELLIPSE" pasteexpansion="0" solderexpansion="0.2008"><ellipse c_etype="pad_shell" cx="4054.5" cy="3129" rx="3" ry="3" layerid="11" stroke-width="0"/><circle c_etype="pad_hole" cx="4054.5" cy="3129" r="1.7992" layerid="11" stroke-width="0"/></g><g c_partid="part_pad" c_etype="pinpart" c_origin="4063.5,3052.001" layerid="11" number="3" net="M1-" plated ="Y"  id="gge721" locked="0" c_rotation="0" c_width="6" c_height="6" title="M1-" c_shape="ELLIPSE" pasteexpansion="0" solderexpansion="0.2008"><ellipse c_etype="pad_shell" cx="4063.5" cy="3052.001" rx="3" ry="3" layerid="11" stroke-width="0"/><circle c_etype="pad_hole" cx="4063.4999" cy="3052.0007" r="1.7992" layerid="11" stroke-width="0"/></g><g c_partid="part_pad" c_etype="pinpart" c_origin="4063.5,3129" layerid="11" number="4" net="M3-" plated ="Y"  id="gge739" locked="0" c_rotation="0" c_width="6" c_height="6" title="M3-" c_shape="ELLIPSE" pasteexpansion="0" solderexpansion="0.2008"><ellipse c_etype="pad_shell" cx="4063.5" cy="3129" rx="3" ry="3" layerid="11" stroke-width="0"/><circle c_etype="pad_hole" cx="4063.5" cy="3129" r="1.7992" layerid="11" stroke-width="0"/></g><g c_partid="part_pad" c_etype="pinpart" c_origin="4162.5,3051.001" layerid="11" number="1" net="VCC" plated ="Y"  id="gge847" locked="0" c_rotation="0" c_width="6" c_height="6" title="VCC" c_shape="ELLIPSE" pasteexpansion="0" solderexpansion="0.2008"><ellipse c_etype="pad_shell" cx="4162.5" cy="3051.001" rx="3" ry="3" layerid="11" stroke-width="0"/><circle c_etype="pad_hole" cx="4162.4997" cy="3051.0007" r="1.7992" layerid="11" stroke-width="0"/></g><g c_partid="part_pad" c_etype="pinpart" c_origin="4171.5,3051.001" layerid="11" number="3" net="M2-" plated ="Y"  id="gge850" locked="0" c_rotation="0" c_width="6" c_height="6" title="M2-" c_shape="ELLIPSE" pasteexpansion="0" solderexpansion="0.2008"><ellipse c_etype="pad_shell" cx="4171.5" cy="3051.001" rx="3" ry="3" layerid="11" stroke-width="0"/><circle c_etype="pad_hole" cx="4171.4997" cy="3051.0007" r="1.7992" layerid="11" stroke-width="0"/></g><g c_partid="part_pad" c_etype="pinpart" c_origin="4162,3129" layerid="11" number="1" net="VCC" plated ="Y"  id="gge883" locked="0" c_rotation="0" c_width="6" c_height="6" title="VCC" c_shape="ELLIPSE" pasteexpansion="0" solderexpansion="0.2008"><ellipse c_etype="pad_shell" cx="4162" cy="3129" rx="3" ry="3" layerid="11" stroke-width="0"/><circle c_etype="pad_hole" cx="4161.9997" cy="3128.9995" r="1.7992" layerid="11" stroke-width="0"/></g><g c_partid="part_pad" c_etype="pinpart" c_origin="4171,3129" layerid="11" number="3" net="M4-" plated ="Y"  id="gge886" locked="0" c_rotation="0" c_width="6" c_height="6" title="M4-" c_shape="ELLIPSE" pasteexpansion="0" solderexpansion="0.2"><ellipse c_etype="pad_shell" cx="4171" cy="3129" rx="3" ry="3" layerid="11" stroke-width="0"/><circle c_etype="pad_hole" cx="4171" cy="3129" r="1.8" layerid="11" stroke-width="0"/></g><g c_partid="part_pad" c_etype="pinpart" c_origin="4085.5,3050.501" layerid="11" number="5" net="MOTOR_1_SIGNAL" plated ="Y"  id="gge1428" locked="0" c_rotation="0" c_width="6" c_height="6" title="MOTOR_1_SIGNAL" c_shape="ELLIPSE" pasteexpansion="0" solderexpansion="0.2008"><ellipse c_etype="pad_shell" cx="4085.5" cy="3050.501" rx="3" ry="3" layerid="11" stroke-width="0"/><circle c_etype="pad_hole" cx="4085.4999" cy="3050.5007" r="1.7992" layerid="11" stroke-width="0"/></g><g c_partid="part_pad" c_etype="pinpart" c_origin="4105,3050.001" layerid="11" number="6" net="MOTOR_2_SIGNAL" plated ="Y"  id="gge1446" locked="0" c_rotation="0" c_width="6" c_height="6" title="MOTOR_2_SIGNAL" c_shape="ELLIPSE" pasteexpansion="0" solderexpansion="0.2008"><ellipse c_etype="pad_shell" cx="4105" cy="3050.001" rx="3" ry="3" layerid="11" stroke-width="0"/><circle c_etype="pad_hole" cx="4104.9998" cy="3050.0007" r="1.7992" layerid="11" stroke-width="0"/></g><g c_partid="part_pad" c_etype="pinpart" c_origin="4124.5,3050.001" layerid="11" number="7" net="MOTOR_3_SIGNAL" plated ="Y"  id="gge1464" locked="0" c_rotation="0" c_width="6" c_height="6" title="MOTOR_3_SIGNAL" c_shape="ELLIPSE" pasteexpansion="0" solderexpansion="0.2008"><ellipse c_etype="pad_shell" cx="4124.5" cy="3050.001" rx="3" ry="3" layerid="11" stroke-width="0"/><circle c_etype="pad_hole" cx="4124.4998" cy="3050.0007" r="1.7992" layerid="11" stroke-width="0"/></g><g c_partid="part_pad" c_etype="pinpart" c_origin="4145.5,3050.001" layerid="11" number="8" net="MOTOR_4_SIGNAL" plated ="Y"  id="gge1482" locked="0" c_rotation="0" c_width="6" c_height="6" title="MOTOR_4_SIGNAL" c_shape="ELLIPSE" pasteexpansion="0" solderexpansion="0.2008"><ellipse c_etype="pad_shell" cx="4145.5" cy="3050.001" rx="3" ry="3" layerid="11" stroke-width="0"/><circle c_etype="pad_hole" cx="4145.4997" cy="3050.0007" r="1.7992" layerid="11" stroke-width="0"/></g><g c_partid="part_pad" c_etype="pinpart" c_origin="4054.5,3094.001" layerid="11" number="1" net="MCU_PWR" plated ="Y"  id="gge1301" locked="0" c_rotation="90" c_width="5.9055" c_height="5.9055" title="MCU_PWR" c_shape="ELLIPSE" pasteexpansion="0" solderexpansion="0.19685"><ellipse c_etype="pad_shell" cx="4054.5" cy="3094.001" rx="2.95275" ry="2.95275" layerid="11" stroke-width="0"/><circle c_etype="pad_hole" cx="4054.4999" cy="3094.0006" r="1.7717" layerid="11" stroke-width="0"/></g><g c_partid="part_pad" c_etype="pinpart" c_origin="4054.5,3084" layerid="11" number="2" net="GND" plated ="Y"  id="gge1319" locked="0" c_rotation="90" c_width="5.9055" c_height="5.9055" title="GND" c_shape="ELLIPSE" pasteexpansion="0" solderexpansion="0.19685"><ellipse c_etype="pad_shell" cx="4054.5" cy="3084" rx="2.95275" ry="2.95275" layerid="11" stroke-width="0"/><circle c_etype="pad_hole" cx="4054.5" cy="3084" r="1.7717" layerid="11" stroke-width="0"/></g><g c_partid="part_pad" c_etype="pinpart" c_origin="4170,3092.5" layerid="11" number="1" net="VCC" plated ="Y"  id="gge462" locked="0" c_rotation="90" c_width="5.9055" c_height="5.9055" title="VCC" c_shape="ELLIPSE" pasteexpansion="0" solderexpansion="0.19685"><ellipse c_etype="pad_shell" cx="4170" cy="3092.5" rx="2.95275" ry="2.95275" layerid="11" stroke-width="0"/><circle c_etype="pad_hole" cx="4170" cy="3092.5" r="1.7717" layerid="11" stroke-width="0"/></g><g c_partid="part_pad" c_etype="pinpart" c_origin="4170,3082.5" layerid="11" number="2" net="GND" plated ="Y"  id="gge477" locked="0" c_rotation="90" c_width="5.9055" c_height="5.9055" title="GND" c_shape="ELLIPSE" pasteexpansion="0" solderexpansion="0.19685"><ellipse c_etype="pad_shell" cx="4170" cy="3082.5" rx="2.95275" ry="2.95275" layerid="11" stroke-width="0"/><circle c_etype="pad_hole" cx="4170" cy="3082.5" r="1.7717" layerid="11" stroke-width="0"/></g><g c_partid="part_via" c_etype="pinpart" c_shapetype="group" net="MOTOR_3_SIGNAL" c_origin="4135.798,3116.034" layerid="11" id="gge1998" locked="0" solderexpansion=""><circle cx="4135.798" cy="3116.034" r="1.2008" stroke-width="0" c_etype="pad_shell"/><circle cx="4135.798" cy="3116.034" r="0.6004"  stroke-width="0" c_etype="pad_hole"/></g><g c_partid="part_via" c_etype="pinpart" c_shapetype="group" net="MOTOR_4_SIGNAL" c_origin="4147.923,3111.483" layerid="11" id="gge2007" locked="0" solderexpansion=""><circle cx="4147.923" cy="3111.483" r="1.2008" stroke-width="0" c_etype="pad_shell"/><circle cx="4147.923" cy="3111.483" r="0.6004"  stroke-width="0" c_etype="pad_hole"/></g><polyline points="4049.5 3099 4059.5 3099 4059.5 3079 4049.5 3079 4049.5 3099" stroke-width="1"  stroke-linecap="round" fill="none" layerid="3" net="" id="gge1292" locked="0" /><polyline points="4129.3591 3066.9913 4123.6409 3066.9913 4123.6409 3071.0528" stroke-width="0.6"  stroke-linecap="round" fill="none" layerid="3" net="" id="gge45" locked="0" /><polyline points="4129.3591 3079.0087 4123.6409 3079.0087 4123.6409 3074.9472" stroke-width="0.6"  stroke-linecap="round" fill="none" layerid="3" net="" id="gge48" locked="0" /><polyline points="4129.3591 3071.2071 4129.3591 3074.7929" stroke-width="0.6"  stroke-linecap="round" fill="none" layerid="3" net="" id="gge51" locked="0" /><polyline points="4147.8591 3066.9913 4142.1409 3066.9913 4142.1409 3071.0528" stroke-width="0.6"  stroke-linecap="round" fill="none" layerid="3" net="" id="gge150" locked="0" /><polyline points="4147.8591 3079.0087 4142.1409 3079.0087 4142.1409 3074.9472" stroke-width="0.6"  stroke-linecap="round" fill="none" layerid="3" net="" id="gge153" locked="0" /><polyline points="4147.8591 3071.2071 4147.8591 3074.7929" stroke-width="0.6"  stroke-linecap="round" fill="none" layerid="3" net="" id="gge156" locked="0" /><polyline points="4130.3591 3104.9913 4124.6409 3104.9913 4124.6409 3109.0528" stroke-width="0.6"  stroke-linecap="round" fill="none" layerid="3" net="" id="gge255" locked="0" /><polyline points="4130.3591 3117.0087 4124.6409 3117.0087 4124.6409 3112.9472" stroke-width="0.6"  stroke-linecap="round" fill="none" layerid="3" net="" id="gge258" locked="0" /><polyline points="4130.3591 3109.2071 4130.3591 3112.7929" stroke-width="0.6"  stroke-linecap="round" fill="none" layerid="3" net="" id="gge261" locked="0" /><polyline points="4147.8591 3104.9913 4142.1409 3104.9913 4142.1409 3109.0528" stroke-width="0.6"  stroke-linecap="round" fill="none" layerid="3" net="" id="gge360" locked="0" /><polyline points="4147.8591 3117.0087 4142.1409 3117.0087 4142.1409 3112.9472" stroke-width="0.6"  stroke-linecap="round" fill="none" layerid="3" net="" id="gge363" locked="0" /><polyline points="4147.8591 3109.2071 4147.8591 3112.7929" stroke-width="0.6"  stroke-linecap="round" fill="none" layerid="3" net="" id="gge366" locked="0" /><polyline points="4165 3097.5 4175 3097.5 4175 3077.5 4165 3077.5 4165 3097.5" stroke-width="1"  stroke-linecap="round" fill="none" layerid="3" net="" id="gge453" locked="0" /><polyline points="4117.2997 3108.3015 4117.2997 3100.1376" stroke-width="0.5984"  stroke-linecap="round" fill="none" layerid="3" net="" id="gge534" locked="0" /><polyline points="4076.6996 3108.3015 4076.6996 3100.5313" stroke-width="0.5984"  stroke-linecap="round" fill="none" layerid="3" net="" id="gge537" locked="0" /><polyline points="4076.6996 3108.3015 4117.2997 3108.3015" stroke-width="0.6"  stroke-linecap="round" fill="none" layerid="3" net="" id="gge540" locked="0" /><g c_partid="part_pcbtext" c_etype="" c_origin="4051.5,3058.5" c_rotation="270" c_mirror="0" id="gge974" locked="0" layerid="3" c_shapetype="group" ><path c_fontsize="4.5" c_fontfamily="" c_text="M1+" d="M 4056.04 3058.5L4051.75 3058.5 M 4056.04 3058.5L4051.75 3060.14 M 4056.04 3061.77L4051.75 3060.14 M 4056.04 3061.77L4051.75 3061.77 M 4055.22 3063.12L4055.43 3063.53 L4056.04 3064.15 L4051.75 3064.15 M 4055.43 3067.34L4051.75 3067.34 M 4053.59 3065.5L4053.59 3069.18 " fill="none"  stroke-width="0.6"  /></g><g c_partid="part_pcbtext" c_etype="" c_origin="4061.5,3058.5" c_rotation="270" c_mirror="0" id="gge986" locked="0" layerid="3" c_shapetype="group" ><path c_fontsize="4.5" c_fontfamily="" c_text="M1-" d="M 4066.04 3058.5L4061.75 3058.5 M 4066.04 3058.5L4061.75 3060.14 M 4066.04 3061.77L4061.75 3060.14 M 4066.04 3061.77L4061.75 3061.77 M 4065.22 3063.12L4065.43 3063.53 L4066.04 3064.15 L4061.75 3064.15 M 4063.59 3065.5L4063.59 3069.18 " fill="none"  stroke-width="0.6"  /></g><g c_partid="part_pcbtext" c_etype="" c_origin="4170.5,3058" c_rotation="270" c_mirror="0" id="gge1007" locked="0" layerid="3" c_shapetype="group" ><path c_fontsize="4.5" c_fontfamily="" c_text="M2-" d="M 4175.04 3058L4170.75 3058 M 4175.04 3058L4170.75 3059.64 M 4175.04 3061.27L4170.75 3059.64 M 4175.04 3061.27L4170.75 3061.27 M 4174.02 3062.83L4174.22 3062.83 L4174.63 3063.03 L4174.84 3063.24 L4175.04 3063.65 L4175.04 3064.46 L4174.84 3064.87 L4174.63 3065.08 L4174.22 3065.28 L4173.81 3065.28 L4173.4 3065.08 L4172.79 3064.67 L4170.75 3062.62 L4170.75 3065.49 M 4172.59 3066.84L4172.59 3070.52 " fill="none"  stroke-width="0.6"  /></g><g c_partid="part_pcbtext" c_etype="" c_origin="4160.5,3058" c_rotation="270" c_mirror="0" id="gge1010" locked="0" layerid="3" c_shapetype="group" ><path c_fontsize="4.5" c_fontfamily="" c_text="M2+" d="M 4165.04 3058L4160.75 3058 M 4165.04 3058L4160.75 3059.64 M 4165.04 3061.27L4160.75 3059.64 M 4165.04 3061.27L4160.75 3061.27 M 4164.02 3062.83L4164.22 3062.83 L4164.63 3063.03 L4164.84 3063.24 L4165.04 3063.65 L4165.04 3064.46 L4164.84 3064.87 L4164.63 3065.08 L4164.22 3065.28 L4163.81 3065.28 L4163.4 3065.08 L4162.79 3064.67 L4160.75 3062.62 L4160.75 3065.49 M 4164.43 3068.68L4160.75 3068.68 M 4162.59 3066.84L4162.59 3070.52 " fill="none"  stroke-width="0.6"  /></g><g c_partid="part_pcbtext" c_etype="" c_origin="4159.5,3112.5" c_rotation="270" c_mirror="0" id="gge1031" locked="0" layerid="3" c_shapetype="group" ><path c_fontsize="4.5" c_fontfamily="" c_text="M4+" d="M 4164.04 3112.5 L 4159.75 3112.5 M 4164.04 3112.5 L 4159.75 3114.14 M 4164.04 3115.77 L 4159.75 3114.14 M 4164.04 3115.77 L 4159.75 3115.77 M 4164.04 3119.17 L 4161.18 3117.12 L 4161.18 3120.19 M 4164.04 3119.17 L 4159.75 3119.17 M 4163.43 3123.38 L 4159.75 3123.38 M 4161.59 3121.54 L 4161.59 3125.22" fill="none"  stroke-width="0.6"  /></g><g c_partid="part_pcbtext" c_etype="" c_origin="4169.5,3112.5" c_rotation="270" c_mirror="0" id="gge1034" locked="0" layerid="3" c_shapetype="group" ><path c_fontsize="4.5" c_fontfamily="" c_text="M4-" d="M 4174.04 3112.5 L 4169.75 3112.5 M 4174.04 3112.5 L 4169.75 3114.14 M 4174.04 3115.77 L 4169.75 3114.14 M 4174.04 3115.77 L 4169.75 3115.77 M 4174.04 3119.17 L 4171.18 3117.12 L 4171.18 3120.19 M 4174.04 3119.17 L 4169.75 3119.17 M 4171.59 3121.54 L 4171.59 3125.22" fill="none"  stroke-width="0.6"  /></g><g c_partid="part_pcbtext" c_etype="" c_origin="4052.5,3112.5" c_rotation="270" c_mirror="0" id="gge1055" locked="0" layerid="3" c_shapetype="group" ><path c_fontsize="4.5" c_fontfamily="" c_text="M3+" d="M 4057.0401 3112.4995 L 4052.7501 3112.4995 M 4057.0401 3112.4995 L 4052.7501 3114.1395 M 4057.0401 3115.7695 L 4052.7501 3114.1395 M 4057.0401 3115.7695 L 4052.7501 3115.7695 M 4057.0401 3117.5295 L 4057.0401 3119.7795 L 4055.4001 3118.5495 L 4055.4001 3119.1695 L 4055.2001 3119.5795 L 4055.0001 3119.7795 L 4054.3801 3119.9895 L 4053.9701 3119.9895 L 4053.3601 3119.7795 L 4052.9501 3119.3695 L 4052.7501 3118.7595 L 4052.7501 3118.1495 L 4052.9501 3117.5295 L 4053.1501 3117.3295 L 4053.5601 3117.1195 M 4056.4301 3123.1795 L 4052.7501 3123.1795 M 4054.5901 3121.3395 L 4054.5901 3125.0195" fill="none"  stroke-width="0.6"  /></g><g c_partid="part_pcbtext" c_etype="" c_origin="4062.5,3112.5" c_rotation="270" c_mirror="0" id="gge1058" locked="0" layerid="3" c_shapetype="group" ><path c_fontsize="4.5" c_fontfamily="" c_text="M3-" d="M 4067.0401 3112.4995 L 4062.7501 3112.4995 M 4067.0401 3112.4995 L 4062.7501 3114.1395 M 4067.0401 3115.7695 L 4062.7501 3114.1395 M 4067.0401 3115.7695 L 4062.7501 3115.7695 M 4067.0401 3117.5295 L 4067.0401 3119.7795 L 4065.4001 3118.5495 L 4065.4001 3119.1695 L 4065.2001 3119.5795 L 4065.0001 3119.7795 L 4064.3801 3119.9895 L 4063.9701 3119.9895 L 4063.3601 3119.7795 L 4062.9501 3119.3695 L 4062.7501 3118.7595 L 4062.7501 3118.1495 L 4062.9501 3117.5295 L 4063.1501 3117.3295 L 4063.5601 3117.1195 M 4064.5901 3121.3395 L 4064.5901 3125.0195" fill="none"  stroke-width="0.6"  /></g><g c_partid="part_pcbtext" c_etype="" c_origin="4150.5,3095" c_rotation="0" c_mirror="0" id="gge1166" locked="0" layerid="3" c_shapetype="group" ><path c_fontsize="4.5" c_fontfamily="" c_text="VCC" d="M 4150.5 3090.46 L 4152.14 3094.75 M 4153.77 3090.46 L 4152.14 3094.75 M 4158.19 3091.48 L 4157.99 3091.07 L 4157.58 3090.66 L 4157.17 3090.46 L 4156.35 3090.46 L 4155.94 3090.66 L 4155.53 3091.07 L 4155.33 3091.48 L 4155.12 3092.1 L 4155.12 3093.12 L 4155.33 3093.73 L 4155.53 3094.14 L 4155.94 3094.55 L 4156.35 3094.75 L 4157.17 3094.75 L 4157.58 3094.55 L 4157.99 3094.14 L 4158.19 3093.73 M 4162.61 3091.48 L 4162.4 3091.07 L 4162 3090.66 L 4161.59 3090.46 L 4160.77 3090.46 L 4160.36 3090.66 L 4159.95 3091.07 L 4159.75 3091.48 L 4159.54 3092.1 L 4159.54 3093.12 L 4159.75 3093.73 L 4159.95 3094.14 L 4160.36 3094.55 L 4160.77 3094.75 L 4161.59 3094.75 L 4162 3094.55 L 4162.4 3094.14 L 4162.61 3093.73" fill="none"  stroke-width="0.6"  /></g><g c_partid="part_pcbtext" c_etype="" c_origin="4061,3095.5" c_rotation="0" c_mirror="0" id="gge1346" locked="0" layerid="3" c_shapetype="group" ><path c_fontsize="4.5" c_fontfamily="" c_text="MC+" d="M 4061 3090.96L4061 3095.25 M 4061 3090.96L4062.64 3095.25 M 4064.27 3090.96L4062.64 3095.25 M 4064.27 3090.96L4064.27 3095.25 M 4068.69 3091.98L4068.49 3091.57 L4068.08 3091.16 L4067.67 3090.96 L4066.85 3090.96 L4066.44 3091.16 L4066.03 3091.57 L4065.83 3091.98 L4065.62 3092.6 L4065.62 3093.62 L4065.83 3094.23 L4066.03 3094.64 L4066.44 3095.05 L4066.85 3095.25 L4067.67 3095.25 L4068.08 3095.05 L4068.49 3094.64 L4068.69 3094.23 M 4071.88 3091.57L4071.88 3095.25 M 4070.04 3093.41L4073.72 3093.41 " fill="none"  stroke-width="0.6"  /></g><g c_partid="part_pcbtext" c_etype="" c_origin="4061,3085.5" c_rotation="0" c_mirror="0" id="gge1367" locked="0" layerid="3" c_shapetype="group" ><path c_fontsize="4.5" c_fontfamily="" c_text="GND" d="M 4064.07 3081.98 L 4063.86 3081.57 L 4063.45 3081.16 L 4063.05 3080.96 L 4062.23 3080.96 L 4061.82 3081.16 L 4061.41 3081.57 L 4061.2 3081.98 L 4061 3082.6 L 4061 3083.62 L 4061.2 3084.23 L 4061.41 3084.64 L 4061.82 3085.05 L 4062.23 3085.25 L 4063.05 3085.25 L 4063.45 3085.05 L 4063.86 3084.64 L 4064.07 3084.23 L 4064.07 3083.62 M 4063.05 3083.62 L 4064.07 3083.62 M 4065.42 3080.96 L 4065.42 3085.25 M 4065.42 3080.96 L 4068.28 3085.25 M 4068.28 3080.96 L 4068.28 3085.25 M 4069.63 3080.96 L 4069.63 3085.25 M 4069.63 3080.96 L 4071.06 3080.96 L 4071.68 3081.16 L 4072.09 3081.57 L 4072.29 3081.98 L 4072.5 3082.6 L 4072.5 3083.62 L 4072.29 3084.23 L 4072.09 3084.64 L 4071.68 3085.05 L 4071.06 3085.25 L 4069.63 3085.25" fill="none"  stroke-width="0.6"  /></g><g c_partid="part_pcbtext" c_etype="" c_origin="4083.5,3054" c_rotation="270" c_mirror="0" id="gge1512" locked="0" layerid="3" c_shapetype="group" ><path c_fontsize="4.5" c_fontfamily="" c_text="S1" d="M 4087.43 3056.86 L 4087.84 3056.45 L 4088.04 3055.84 L 4088.04 3055.02 L 4087.84 3054.41 L 4087.43 3054 L 4087.02 3054 L 4086.61 3054.2 L 4086.4 3054.41 L 4086.2 3054.82 L 4085.79 3056.05 L 4085.59 3056.45 L 4085.38 3056.66 L 4084.97 3056.86 L 4084.36 3056.86 L 4083.95 3056.45 L 4083.75 3055.84 L 4083.75 3055.02 L 4083.95 3054.41 L 4084.36 3054 M 4087.22 3058.21 L 4087.43 3058.62 L 4088.04 3059.24 L 4083.75 3059.24" fill="none"  stroke-width="0.6"  /></g><g c_partid="part_pcbtext" c_etype="" c_origin="4102.5,3053.5" c_rotation="270" c_mirror="0" id="gge1524" locked="0" layerid="3" c_shapetype="group" ><path c_fontsize="4.5" c_fontfamily="" c_text="S2" d="M 4106.43 3056.36 L 4106.84 3055.95 L 4107.04 3055.34 L 4107.04 3054.52 L 4106.84 3053.91 L 4106.43 3053.5 L 4106.02 3053.5 L 4105.61 3053.7 L 4105.4 3053.91 L 4105.2 3054.32 L 4104.79 3055.55 L 4104.59 3055.95 L 4104.38 3056.16 L 4103.97 3056.36 L 4103.36 3056.36 L 4102.95 3055.95 L 4102.75 3055.34 L 4102.75 3054.52 L 4102.95 3053.91 L 4103.36 3053.5 M 4106.02 3057.92 L 4106.22 3057.92 L 4106.63 3058.12 L 4106.84 3058.33 L 4107.04 3058.74 L 4107.04 3059.55 L 4106.84 3059.96 L 4106.63 3060.17 L 4106.22 3060.37 L 4105.81 3060.37 L 4105.4 3060.17 L 4104.79 3059.76 L 4102.75 3057.71 L 4102.75 3060.58" fill="none"  stroke-width="0.6"  /></g><g c_partid="part_pcbtext" c_etype="" c_origin="4122,3054" c_rotation="270" c_mirror="0" id="gge1536" locked="0" layerid="3" c_shapetype="group" ><path c_fontsize="4.5" c_fontfamily="" c_text="S3" d="M 4125.93 3056.86 L 4126.34 3056.45 L 4126.54 3055.84 L 4126.54 3055.02 L 4126.34 3054.41 L 4125.93 3054 L 4125.52 3054 L 4125.11 3054.2 L 4124.9 3054.41 L 4124.7 3054.82 L 4124.29 3056.05 L 4124.09 3056.45 L 4123.88 3056.66 L 4123.47 3056.86 L 4122.86 3056.86 L 4122.45 3056.45 L 4122.25 3055.84 L 4122.25 3055.02 L 4122.45 3054.41 L 4122.86 3054 M 4126.54 3058.62 L 4126.54 3060.87 L 4124.9 3059.65 L 4124.9 3060.26 L 4124.7 3060.67 L 4124.5 3060.87 L 4123.88 3061.08 L 4123.47 3061.08 L 4122.86 3060.87 L 4122.45 3060.46 L 4122.25 3059.85 L 4122.25 3059.24 L 4122.45 3058.62 L 4122.65 3058.42 L 4123.06 3058.21" fill="none"  stroke-width="0.6"  /></g><g c_partid="part_pcbtext" c_etype="" c_origin="4143.5,3054" c_rotation="270" c_mirror="0" id="gge1548" locked="0" layerid="3" c_shapetype="group" ><path c_fontsize="4.5" c_fontfamily="" c_text="S4" d="M 4147.43 3056.86 L 4147.84 3056.45 L 4148.04 3055.84 L 4148.04 3055.02 L 4147.84 3054.41 L 4147.43 3054 L 4147.02 3054 L 4146.61 3054.2 L 4146.4 3054.41 L 4146.2 3054.82 L 4145.79 3056.05 L 4145.59 3056.45 L 4145.38 3056.66 L 4144.97 3056.86 L 4144.36 3056.86 L 4143.95 3056.45 L 4143.75 3055.84 L 4143.75 3055.02 L 4143.95 3054.41 L 4144.36 3054 M 4148.04 3060.26 L 4145.18 3058.21 L 4145.18 3061.28 M 4148.04 3060.26 L 4143.75 3060.26" fill="none"  stroke-width="0.6"  /></g><g c_partid="part_pcbtext" c_etype="" c_origin="4041.5,3090" c_rotation="90" c_mirror="0" id="gge1265" locked="0" layerid="3" c_shapetype="group" display="none"><path c_fontsize="4.5" c_fontfamily="" c_text="HDGCPH-PZ01-02" d="M 4036.96 3090 L 4041.25 3090 M 4036.96 3087.14 L 4041.25 3087.14 M 4039 3090 L 4039 3087.14 M 4036.96 3085.79 L 4041.25 3085.79 M 4036.96 3085.79 L 4036.96 3084.35 L 4037.16 3083.74 L 4037.57 3083.33 L 4037.98 3083.13 L 4038.6 3082.92 L 4039.62 3082.92 L 4040.23 3083.13 L 4040.64 3083.33 L 4041.05 3083.74 L 4041.25 3084.35 L 4041.25 3085.79 M 4037.98 3078.5 L 4037.57 3078.71 L 4037.16 3079.12 L 4036.96 3079.53 L 4036.96 3080.35 L 4037.16 3080.75 L 4037.57 3081.16 L 4037.98 3081.37 L 4038.6 3081.57 L 4039.62 3081.57 L 4040.23 3081.37 L 4040.64 3081.16 L 4041.05 3080.75 L 4041.25 3080.35 L 4041.25 3079.53 L 4041.05 3079.12 L 4040.64 3078.71 L 4040.23 3078.5 L 4039.62 3078.5 M 4039.62 3079.53 L 4039.62 3078.5 M 4037.98 3074.09 L 4037.57 3074.29 L 4037.16 3074.7 L 4036.96 3075.11 L 4036.96 3075.93 L 4037.16 3076.34 L 4037.57 3076.75 L 4037.98 3076.95 L 4038.6 3077.15 L 4039.62 3077.15 L 4040.23 3076.95 L 4040.64 3076.75 L 4041.05 3076.34 L 4041.25 3075.93 L 4041.25 3075.11 L 4041.05 3074.7 L 4040.64 3074.29 L 4040.23 3074.09 M 4036.96 3072.74 L 4041.25 3072.74 M 4036.96 3072.74 L 4036.96 3070.9 L 4037.16 3070.28 L 4037.37 3070.08 L 4037.78 3069.87 L 4038.39 3069.87 L 4038.8 3070.08 L 4039 3070.28 L 4039.21 3070.9 L 4039.21 3072.74 M 4036.96 3068.52 L 4041.25 3068.52 M 4036.96 3065.66 L 4041.25 3065.66 M 4039 3068.52 L 4039 3065.66 M 4039.41 3064.31 L 4039.41 3060.63 M 4036.96 3059.28 L 4041.25 3059.28 M 4036.96 3059.28 L 4036.96 3057.44 L 4037.16 3056.82 L 4037.37 3056.62 L 4037.78 3056.41 L 4038.39 3056.41 L 4038.8 3056.62 L 4039 3056.82 L 4039.21 3057.44 L 4039.21 3059.28 M 4036.96 3052.2 L 4041.25 3055.06 M 4036.96 3055.06 L 4036.96 3052.2 M 4041.25 3055.06 L 4041.25 3052.2 M 4036.96 3049.62 L 4037.16 3050.24 L 4037.78 3050.65 L 4038.8 3050.85 L 4039.41 3050.85 L 4040.44 3050.65 L 4041.05 3050.24 L 4041.25 3049.62 L 4041.25 3049.21 L 4041.05 3048.6 L 4040.44 3048.19 L 4039.41 3047.99 L 4038.8 3047.99 L 4037.78 3048.19 L 4037.16 3048.6 L 4036.96 3049.21 L 4036.96 3049.62 M 4037.78 3046.64 L 4037.57 3046.23 L 4036.96 3045.61 L 4041.25 3045.61 M 4039.41 3044.26 L 4039.41 3040.58 M 4036.96 3038 L 4037.16 3038.62 L 4037.78 3039.03 L 4038.8 3039.23 L 4039.41 3039.23 L 4040.44 3039.03 L 4041.05 3038.62 L 4041.25 3038 L 4041.25 3037.6 L 4041.05 3036.98 L 4040.44 3036.57 L 4039.41 3036.37 L 4038.8 3036.37 L 4037.78 3036.57 L 4037.16 3036.98 L 4036.96 3037.6 L 4036.96 3038 M 4037.98 3034.81 L 4037.78 3034.81 L 4037.37 3034.61 L 4037.16 3034.4 L 4036.96 3034 L 4036.96 3033.18 L 4037.16 3032.77 L 4037.37 3032.56 L 4037.78 3032.36 L 4038.19 3032.36 L 4038.6 3032.56 L 4039.21 3032.97 L 4041.25 3035.02 L 4041.25 3032.15" fill="none"  stroke-width="0.6" c_note="note_name" /></g><g c_partid="part_pcbtext" c_etype="" c_origin="4035,3086.5" c_rotation="0" c_mirror="0" id="gge1271" locked="0" layerid="3" c_shapetype="group" display="none"><path c_fontsize="4.5" c_fontfamily="" c_text="GND1" d="M 4038.07 3082.98 L 4037.86 3082.57 L 4037.45 3082.16 L 4037.05 3081.96 L 4036.23 3081.96 L 4035.82 3082.16 L 4035.41 3082.57 L 4035.2 3082.98 L 4035 3083.6 L 4035 3084.62 L 4035.2 3085.23 L 4035.41 3085.64 L 4035.82 3086.05 L 4036.23 3086.25 L 4037.05 3086.25 L 4037.45 3086.05 L 4037.86 3085.64 L 4038.07 3085.23 L 4038.07 3084.62 M 4037.05 3084.62 L 4038.07 3084.62 M 4039.42 3081.96 L 4039.42 3086.25 M 4039.42 3081.96 L 4042.28 3086.25 M 4042.28 3081.96 L 4042.28 3086.25 M 4043.63 3081.96 L 4043.63 3086.25 M 4043.63 3081.96 L 4045.06 3081.96 L 4045.68 3082.16 L 4046.09 3082.57 L 4046.29 3082.98 L 4046.5 3083.6 L 4046.5 3084.62 L 4046.29 3085.23 L 4046.09 3085.64 L 4045.68 3086.05 L 4045.06 3086.25 L 4043.63 3086.25 M 4047.85 3082.78 L 4048.25 3082.57 L 4048.87 3081.96 L 4048.87 3086.25" fill="none"  stroke-width="0.6" c_note="note_pre" /></g><g c_partid="part_pcbtext" c_etype="" c_origin="4126.5,3058" c_rotation="0" c_mirror="0" id="gge9" locked="0" layerid="3" c_shapetype="group" display="none"><path c_fontsize="4.5" c_fontfamily="" c_text="IRLML6344GTRPBF-VB" d="M 4126.5 3053.46 L 4126.5 3057.75 M 4127.85 3053.46 L 4127.85 3057.75 M 4127.85 3053.46 L 4129.69 3053.46 L 4130.3 3053.66 L 4130.51 3053.87 L 4130.71 3054.28 L 4130.71 3054.69 L 4130.51 3055.1 L 4130.3 3055.3 L 4129.69 3055.5 L 4127.85 3055.5 M 4129.28 3055.5 L 4130.71 3057.75 M 4132.06 3053.46 L 4132.06 3057.75 M 4132.06 3057.75 L 4134.52 3057.75 M 4135.87 3053.46 L 4135.87 3057.75 M 4135.87 3053.46 L 4137.5 3057.75 M 4139.14 3053.46 L 4137.5 3057.75 M 4139.14 3053.46 L 4139.14 3057.75 M 4140.49 3053.46 L 4140.49 3057.75 M 4140.49 3057.75 L 4142.95 3057.75 M 4146.75 3054.07 L 4146.55 3053.66 L 4145.93 3053.46 L 4145.52 3053.46 L 4144.91 3053.66 L 4144.5 3054.28 L 4144.3 3055.3 L 4144.3 3056.32 L 4144.5 3057.14 L 4144.91 3057.55 L 4145.52 3057.75 L 4145.73 3057.75 L 4146.34 3057.55 L 4146.75 3057.14 L 4146.95 3056.53 L 4146.95 3056.32 L 4146.75 3055.71 L 4146.34 3055.3 L 4145.73 3055.1 L 4145.52 3055.1 L 4144.91 3055.3 L 4144.5 3055.71 L 4144.3 3056.32 M 4148.71 3053.46 L 4150.96 3053.46 L 4149.74 3055.1 L 4150.35 3055.1 L 4150.76 3055.3 L 4150.96 3055.5 L 4151.17 3056.12 L 4151.17 3056.53 L 4150.96 3057.14 L 4150.55 3057.55 L 4149.94 3057.75 L 4149.33 3057.75 L 4148.71 3057.55 L 4148.51 3057.35 L 4148.3 3056.94 M 4154.56 3053.46 L 4152.52 3056.32 L 4155.59 3056.32 M 4154.56 3053.46 L 4154.56 3057.75 M 4158.98 3053.46 L 4156.94 3056.32 L 4160 3056.32 M 4158.98 3053.46 L 4158.98 3057.75 M 4164.42 3054.48 L 4164.22 3054.07 L 4163.81 3053.66 L 4163.4 3053.46 L 4162.58 3053.46 L 4162.17 3053.66 L 4161.76 3054.07 L 4161.56 3054.48 L 4161.35 3055.1 L 4161.35 3056.12 L 4161.56 3056.73 L 4161.76 3057.14 L 4162.17 3057.55 L 4162.58 3057.75 L 4163.4 3057.75 L 4163.81 3057.55 L 4164.22 3057.14 L 4164.42 3056.73 L 4164.42 3056.12 M 4163.4 3056.12 L 4164.42 3056.12 M 4167.2 3053.46 L 4167.2 3057.75 M 4165.77 3053.46 L 4168.64 3053.46 M 4169.99 3053.46 L 4169.99 3057.75 M 4169.99 3053.46 L 4171.83 3053.46 L 4172.44 3053.66 L 4172.65 3053.87 L 4172.85 3054.28 L 4172.85 3054.69 L 4172.65 3055.1 L 4172.44 3055.3 L 4171.83 3055.5 L 4169.99 3055.5 M 4171.42 3055.5 L 4172.85 3057.75 M 4174.2 3053.46 L 4174.2 3057.75 M 4174.2 3053.46 L 4176.04 3053.46 L 4176.65 3053.66 L 4176.86 3053.87 L 4177.06 3054.28 L 4177.06 3054.89 L 4176.86 3055.3 L 4176.65 3055.5 L 4176.04 3055.71 L 4174.2 3055.71 M 4178.41 3053.46 L 4178.41 3057.75 M 4178.41 3053.46 L 4180.25 3053.46 L 4180.87 3053.66 L 4181.07 3053.87 L 4181.28 3054.28 L 4181.28 3054.69 L 4181.07 3055.1 L 4180.87 3055.3 L 4180.25 3055.5 M 4178.41 3055.5 L 4180.25 3055.5 L 4180.87 3055.71 L 4181.07 3055.91 L 4181.28 3056.32 L 4181.28 3056.94 L 4181.07 3057.35 L 4180.87 3057.55 L 4180.25 3057.75 L 4178.41 3057.75 M 4182.63 3053.46 L 4182.63 3057.75 M 4182.63 3053.46 L 4185.29 3053.46 M 4182.63 3055.5 L 4184.26 3055.5 M 4186.64 3055.91 L 4190.32 3055.91 M 4191.67 3053.46 L 4193.3 3057.75 M 4194.94 3053.46 L 4193.3 3057.75 M 4196.29 3053.46 L 4196.29 3057.75 M 4196.29 3053.46 L 4198.13 3053.46 L 4198.75 3053.66 L 4198.95 3053.87 L 4199.15 3054.28 L 4199.15 3054.69 L 4198.95 3055.1 L 4198.75 3055.3 L 4198.13 3055.5 M 4196.29 3055.5 L 4198.13 3055.5 L 4198.75 3055.71 L 4198.95 3055.91 L 4199.15 3056.32 L 4199.15 3056.94 L 4198.95 3057.35 L 4198.75 3057.55 L 4198.13 3057.75 L 4196.29 3057.75" fill="none"  stroke-width="0.6" c_note="note_name" /></g><g c_partid="part_pcbtext" c_etype="" c_origin="4126.5,3085" c_rotation="0" c_mirror="0" id="gge15" locked="0" layerid="3" c_shapetype="group" ><path c_fontsize="4.5" c_fontfamily="" c_text="Q1" d="M 4127.73 3080.46 L 4127.32 3080.66 L 4126.91 3081.07 L 4126.7 3081.48 L 4126.5 3082.1 L 4126.5 3083.12 L 4126.7 3083.73 L 4126.91 3084.14 L 4127.32 3084.55 L 4127.73 3084.75 L 4128.55 3084.75 L 4128.95 3084.55 L 4129.36 3084.14 L 4129.57 3083.73 L 4129.77 3083.12 L 4129.77 3082.1 L 4129.57 3081.48 L 4129.36 3081.07 L 4128.95 3080.66 L 4128.55 3080.46 L 4127.73 3080.46 M 4128.34 3083.94 L 4129.57 3085.16 M 4131.12 3081.28 L 4131.53 3081.07 L 4132.15 3080.46 L 4132.15 3084.75" fill="none"  stroke-width="0.6" c_note="note_pre" /></g><g c_partid="part_pcbtext" c_etype="" c_origin="4145,3058" c_rotation="0" c_mirror="0" id="gge114" locked="0" layerid="3" c_shapetype="group" display="none"><path c_fontsize="4.5" c_fontfamily="" c_text="IRLML6344GTRPBF-VB" d="M 4145 3053.46 L 4145 3057.75 M 4146.35 3053.46 L 4146.35 3057.75 M 4146.35 3053.46 L 4148.19 3053.46 L 4148.8 3053.66 L 4149.01 3053.87 L 4149.21 3054.28 L 4149.21 3054.69 L 4149.01 3055.1 L 4148.8 3055.3 L 4148.19 3055.5 L 4146.35 3055.5 M 4147.78 3055.5 L 4149.21 3057.75 M 4150.56 3053.46 L 4150.56 3057.75 M 4150.56 3057.75 L 4153.02 3057.75 M 4154.37 3053.46 L 4154.37 3057.75 M 4154.37 3053.46 L 4156 3057.75 M 4157.64 3053.46 L 4156 3057.75 M 4157.64 3053.46 L 4157.64 3057.75 M 4158.99 3053.46 L 4158.99 3057.75 M 4158.99 3057.75 L 4161.45 3057.75 M 4165.25 3054.07 L 4165.05 3053.66 L 4164.43 3053.46 L 4164.02 3053.46 L 4163.41 3053.66 L 4163 3054.28 L 4162.8 3055.3 L 4162.8 3056.32 L 4163 3057.14 L 4163.41 3057.55 L 4164.02 3057.75 L 4164.23 3057.75 L 4164.84 3057.55 L 4165.25 3057.14 L 4165.45 3056.53 L 4165.45 3056.32 L 4165.25 3055.71 L 4164.84 3055.3 L 4164.23 3055.1 L 4164.02 3055.1 L 4163.41 3055.3 L 4163 3055.71 L 4162.8 3056.32 M 4167.21 3053.46 L 4169.46 3053.46 L 4168.24 3055.1 L 4168.85 3055.1 L 4169.26 3055.3 L 4169.46 3055.5 L 4169.67 3056.12 L 4169.67 3056.53 L 4169.46 3057.14 L 4169.05 3057.55 L 4168.44 3057.75 L 4167.83 3057.75 L 4167.21 3057.55 L 4167.01 3057.35 L 4166.8 3056.94 M 4173.06 3053.46 L 4171.02 3056.32 L 4174.09 3056.32 M 4173.06 3053.46 L 4173.06 3057.75 M 4177.48 3053.46 L 4175.44 3056.32 L 4178.5 3056.32 M 4177.48 3053.46 L 4177.48 3057.75 M 4182.92 3054.48 L 4182.72 3054.07 L 4182.31 3053.66 L 4181.9 3053.46 L 4181.08 3053.46 L 4180.67 3053.66 L 4180.26 3054.07 L 4180.06 3054.48 L 4179.85 3055.1 L 4179.85 3056.12 L 4180.06 3056.73 L 4180.26 3057.14 L 4180.67 3057.55 L 4181.08 3057.75 L 4181.9 3057.75 L 4182.31 3057.55 L 4182.72 3057.14 L 4182.92 3056.73 L 4182.92 3056.12 M 4181.9 3056.12 L 4182.92 3056.12 M 4185.7 3053.46 L 4185.7 3057.75 M 4184.27 3053.46 L 4187.14 3053.46 M 4188.49 3053.46 L 4188.49 3057.75 M 4188.49 3053.46 L 4190.33 3053.46 L 4190.94 3053.66 L 4191.15 3053.87 L 4191.35 3054.28 L 4191.35 3054.69 L 4191.15 3055.1 L 4190.94 3055.3 L 4190.33 3055.5 L 4188.49 3055.5 M 4189.92 3055.5 L 4191.35 3057.75 M 4192.7 3053.46 L 4192.7 3057.75 M 4192.7 3053.46 L 4194.54 3053.46 L 4195.15 3053.66 L 4195.36 3053.87 L 4195.56 3054.28 L 4195.56 3054.89 L 4195.36 3055.3 L 4195.15 3055.5 L 4194.54 3055.71 L 4192.7 3055.71 M 4196.91 3053.46 L 4196.91 3057.75 M 4196.91 3053.46 L 4198.75 3053.46 L 4199.37 3053.66 L 4199.57 3053.87 L 4199.78 3054.28 L 4199.78 3054.69 L 4199.57 3055.1 L 4199.37 3055.3 L 4198.75 3055.5 M 4196.91 3055.5 L 4198.75 3055.5 L 4199.37 3055.71 L 4199.57 3055.91 L 4199.78 3056.32 L 4199.78 3056.94 L 4199.57 3057.35 L 4199.37 3057.55 L 4198.75 3057.75 L 4196.91 3057.75 M 4201.13 3053.46 L 4201.13 3057.75 M 4201.13 3053.46 L 4203.79 3053.46 M 4201.13 3055.5 L 4202.76 3055.5 M 4205.14 3055.91 L 4208.82 3055.91 M 4210.17 3053.46 L 4211.8 3057.75 M 4213.44 3053.46 L 4211.8 3057.75 M 4214.79 3053.46 L 4214.79 3057.75 M 4214.79 3053.46 L 4216.63 3053.46 L 4217.25 3053.66 L 4217.45 3053.87 L 4217.65 3054.28 L 4217.65 3054.69 L 4217.45 3055.1 L 4217.25 3055.3 L 4216.63 3055.5 M 4214.79 3055.5 L 4216.63 3055.5 L 4217.25 3055.71 L 4217.45 3055.91 L 4217.65 3056.32 L 4217.65 3056.94 L 4217.45 3057.35 L 4217.25 3057.55 L 4216.63 3057.75 L 4214.79 3057.75" fill="none"  stroke-width="0.6" c_note="note_name" /></g><g c_partid="part_pcbtext" c_etype="" c_origin="4138,3085" c_rotation="0" c_mirror="0" id="gge120" locked="0" layerid="3" c_shapetype="group" ><path c_fontsize="4.5" c_fontfamily="" c_text="Q2" d="M 4139.23 3080.46 L 4138.82 3080.66 L 4138.41 3081.07 L 4138.2 3081.48 L 4138 3082.1 L 4138 3083.12 L 4138.2 3083.73 L 4138.41 3084.14 L 4138.82 3084.55 L 4139.23 3084.75 L 4140.05 3084.75 L 4140.45 3084.55 L 4140.86 3084.14 L 4141.07 3083.73 L 4141.27 3083.12 L 4141.27 3082.1 L 4141.07 3081.48 L 4140.86 3081.07 L 4140.45 3080.66 L 4140.05 3080.46 L 4139.23 3080.46 M 4139.84 3083.94 L 4141.07 3085.16 M 4142.83 3081.48 L 4142.83 3081.28 L 4143.03 3080.87 L 4143.24 3080.66 L 4143.65 3080.46 L 4144.46 3080.46 L 4144.87 3080.66 L 4145.08 3080.87 L 4145.28 3081.28 L 4145.28 3081.69 L 4145.08 3082.1 L 4144.67 3082.71 L 4142.62 3084.75 L 4145.49 3084.75" fill="none"  stroke-width="0.6" c_note="note_pre" /></g><g c_partid="part_pcbtext" c_etype="" c_origin="4127.5,3096" c_rotation="0" c_mirror="0" id="gge219" locked="0" layerid="3" c_shapetype="group" display="none"><path c_fontsize="4.5" c_fontfamily="" c_text="IRLML6344GTRPBF-VB" d="M 4127.5 3091.46 L 4127.5 3095.75 M 4128.85 3091.46 L 4128.85 3095.75 M 4128.85 3091.46 L 4130.69 3091.46 L 4131.3 3091.66 L 4131.51 3091.87 L 4131.71 3092.28 L 4131.71 3092.69 L 4131.51 3093.1 L 4131.3 3093.3 L 4130.69 3093.5 L 4128.85 3093.5 M 4130.28 3093.5 L 4131.71 3095.75 M 4133.06 3091.46 L 4133.06 3095.75 M 4133.06 3095.75 L 4135.52 3095.75 M 4136.87 3091.46 L 4136.87 3095.75 M 4136.87 3091.46 L 4138.5 3095.75 M 4140.14 3091.46 L 4138.5 3095.75 M 4140.14 3091.46 L 4140.14 3095.75 M 4141.49 3091.46 L 4141.49 3095.75 M 4141.49 3095.75 L 4143.95 3095.75 M 4147.75 3092.07 L 4147.55 3091.66 L 4146.93 3091.46 L 4146.52 3091.46 L 4145.91 3091.66 L 4145.5 3092.28 L 4145.3 3093.3 L 4145.3 3094.32 L 4145.5 3095.14 L 4145.91 3095.55 L 4146.52 3095.75 L 4146.73 3095.75 L 4147.34 3095.55 L 4147.75 3095.14 L 4147.95 3094.53 L 4147.95 3094.32 L 4147.75 3093.71 L 4147.34 3093.3 L 4146.73 3093.1 L 4146.52 3093.1 L 4145.91 3093.3 L 4145.5 3093.71 L 4145.3 3094.32 M 4149.71 3091.46 L 4151.96 3091.46 L 4150.74 3093.1 L 4151.35 3093.1 L 4151.76 3093.3 L 4151.96 3093.5 L 4152.17 3094.12 L 4152.17 3094.53 L 4151.96 3095.14 L 4151.55 3095.55 L 4150.94 3095.75 L 4150.33 3095.75 L 4149.71 3095.55 L 4149.51 3095.35 L 4149.3 3094.94 M 4155.56 3091.46 L 4153.52 3094.32 L 4156.59 3094.32 M 4155.56 3091.46 L 4155.56 3095.75 M 4159.98 3091.46 L 4157.94 3094.32 L 4161 3094.32 M 4159.98 3091.46 L 4159.98 3095.75 M 4165.42 3092.48 L 4165.22 3092.07 L 4164.81 3091.66 L 4164.4 3091.46 L 4163.58 3091.46 L 4163.17 3091.66 L 4162.76 3092.07 L 4162.56 3092.48 L 4162.35 3093.1 L 4162.35 3094.12 L 4162.56 3094.73 L 4162.76 3095.14 L 4163.17 3095.55 L 4163.58 3095.75 L 4164.4 3095.75 L 4164.81 3095.55 L 4165.22 3095.14 L 4165.42 3094.73 L 4165.42 3094.12 M 4164.4 3094.12 L 4165.42 3094.12 M 4168.2 3091.46 L 4168.2 3095.75 M 4166.77 3091.46 L 4169.64 3091.46 M 4170.99 3091.46 L 4170.99 3095.75 M 4170.99 3091.46 L 4172.83 3091.46 L 4173.44 3091.66 L 4173.65 3091.87 L 4173.85 3092.28 L 4173.85 3092.69 L 4173.65 3093.1 L 4173.44 3093.3 L 4172.83 3093.5 L 4170.99 3093.5 M 4172.42 3093.5 L 4173.85 3095.75 M 4175.2 3091.46 L 4175.2 3095.75 M 4175.2 3091.46 L 4177.04 3091.46 L 4177.65 3091.66 L 4177.86 3091.87 L 4178.06 3092.28 L 4178.06 3092.89 L 4177.86 3093.3 L 4177.65 3093.5 L 4177.04 3093.71 L 4175.2 3093.71 M 4179.41 3091.46 L 4179.41 3095.75 M 4179.41 3091.46 L 4181.25 3091.46 L 4181.87 3091.66 L 4182.07 3091.87 L 4182.28 3092.28 L 4182.28 3092.69 L 4182.07 3093.1 L 4181.87 3093.3 L 4181.25 3093.5 M 4179.41 3093.5 L 4181.25 3093.5 L 4181.87 3093.71 L 4182.07 3093.91 L 4182.28 3094.32 L 4182.28 3094.94 L 4182.07 3095.35 L 4181.87 3095.55 L 4181.25 3095.75 L 4179.41 3095.75 M 4183.63 3091.46 L 4183.63 3095.75 M 4183.63 3091.46 L 4186.29 3091.46 M 4183.63 3093.5 L 4185.26 3093.5 M 4187.64 3093.91 L 4191.32 3093.91 M 4192.67 3091.46 L 4194.3 3095.75 M 4195.94 3091.46 L 4194.3 3095.75 M 4197.29 3091.46 L 4197.29 3095.75 M 4197.29 3091.46 L 4199.13 3091.46 L 4199.75 3091.66 L 4199.95 3091.87 L 4200.15 3092.28 L 4200.15 3092.69 L 4199.95 3093.1 L 4199.75 3093.3 L 4199.13 3093.5 M 4197.29 3093.5 L 4199.13 3093.5 L 4199.75 3093.71 L 4199.95 3093.91 L 4200.15 3094.32 L 4200.15 3094.94 L 4199.95 3095.35 L 4199.75 3095.55 L 4199.13 3095.75 L 4197.29 3095.75" fill="none"  stroke-width="0.6" c_note="note_name" /></g><g c_partid="part_pcbtext" c_etype="" c_origin="4127.5,3123" c_rotation="0" c_mirror="0" id="gge225" locked="0" layerid="3" c_shapetype="group" ><path c_fontsize="4.5" c_fontfamily="" c_text="Q3" d="M 4128.73 3118.46 L 4128.32 3118.66 L 4127.91 3119.07 L 4127.7 3119.48 L 4127.5 3120.1 L 4127.5 3121.12 L 4127.7 3121.73 L 4127.91 3122.14 L 4128.32 3122.55 L 4128.73 3122.75 L 4129.55 3122.75 L 4129.95 3122.55 L 4130.36 3122.14 L 4130.57 3121.73 L 4130.77 3121.12 L 4130.77 3120.1 L 4130.57 3119.48 L 4130.36 3119.07 L 4129.95 3118.66 L 4129.55 3118.46 L 4128.73 3118.46 M 4129.34 3121.94 L 4130.57 3123.16 M 4132.53 3118.46 L 4134.78 3118.46 L 4133.55 3120.1 L 4134.17 3120.1 L 4134.58 3120.3 L 4134.78 3120.5 L 4134.99 3121.12 L 4134.99 3121.53 L 4134.78 3122.14 L 4134.37 3122.55 L 4133.76 3122.75 L 4133.15 3122.75 L 4132.53 3122.55 L 4132.33 3122.35 L 4132.12 3121.94" fill="none"  stroke-width="0.6" c_note="note_pre" /></g><g c_partid="part_pcbtext" c_etype="" c_origin="4145,3096" c_rotation="0" c_mirror="0" id="gge324" locked="0" layerid="3" c_shapetype="group" display="none"><path c_fontsize="4.5" c_fontfamily="" c_text="IRLML6344GTRPBF-VB" d="M 4145 3091.46 L 4145 3095.75 M 4146.35 3091.46 L 4146.35 3095.75 M 4146.35 3091.46 L 4148.19 3091.46 L 4148.8 3091.66 L 4149.01 3091.87 L 4149.21 3092.28 L 4149.21 3092.69 L 4149.01 3093.1 L 4148.8 3093.3 L 4148.19 3093.5 L 4146.35 3093.5 M 4147.78 3093.5 L 4149.21 3095.75 M 4150.56 3091.46 L 4150.56 3095.75 M 4150.56 3095.75 L 4153.02 3095.75 M 4154.37 3091.46 L 4154.37 3095.75 M 4154.37 3091.46 L 4156 3095.75 M 4157.64 3091.46 L 4156 3095.75 M 4157.64 3091.46 L 4157.64 3095.75 M 4158.99 3091.46 L 4158.99 3095.75 M 4158.99 3095.75 L 4161.45 3095.75 M 4165.25 3092.07 L 4165.05 3091.66 L 4164.43 3091.46 L 4164.02 3091.46 L 4163.41 3091.66 L 4163 3092.28 L 4162.8 3093.3 L 4162.8 3094.32 L 4163 3095.14 L 4163.41 3095.55 L 4164.02 3095.75 L 4164.23 3095.75 L 4164.84 3095.55 L 4165.25 3095.14 L 4165.45 3094.53 L 4165.45 3094.32 L 4165.25 3093.71 L 4164.84 3093.3 L 4164.23 3093.1 L 4164.02 3093.1 L 4163.41 3093.3 L 4163 3093.71 L 4162.8 3094.32 M 4167.21 3091.46 L 4169.46 3091.46 L 4168.24 3093.1 L 4168.85 3093.1 L 4169.26 3093.3 L 4169.46 3093.5 L 4169.67 3094.12 L 4169.67 3094.53 L 4169.46 3095.14 L 4169.05 3095.55 L 4168.44 3095.75 L 4167.83 3095.75 L 4167.21 3095.55 L 4167.01 3095.35 L 4166.8 3094.94 M 4173.06 3091.46 L 4171.02 3094.32 L 4174.09 3094.32 M 4173.06 3091.46 L 4173.06 3095.75 M 4177.48 3091.46 L 4175.44 3094.32 L 4178.5 3094.32 M 4177.48 3091.46 L 4177.48 3095.75 M 4182.92 3092.48 L 4182.72 3092.07 L 4182.31 3091.66 L 4181.9 3091.46 L 4181.08 3091.46 L 4180.67 3091.66 L 4180.26 3092.07 L 4180.06 3092.48 L 4179.85 3093.1 L 4179.85 3094.12 L 4180.06 3094.73 L 4180.26 3095.14 L 4180.67 3095.55 L 4181.08 3095.75 L 4181.9 3095.75 L 4182.31 3095.55 L 4182.72 3095.14 L 4182.92 3094.73 L 4182.92 3094.12 M 4181.9 3094.12 L 4182.92 3094.12 M 4185.7 3091.46 L 4185.7 3095.75 M 4184.27 3091.46 L 4187.14 3091.46 M 4188.49 3091.46 L 4188.49 3095.75 M 4188.49 3091.46 L 4190.33 3091.46 L 4190.94 3091.66 L 4191.15 3091.87 L 4191.35 3092.28 L 4191.35 3092.69 L 4191.15 3093.1 L 4190.94 3093.3 L 4190.33 3093.5 L 4188.49 3093.5 M 4189.92 3093.5 L 4191.35 3095.75 M 4192.7 3091.46 L 4192.7 3095.75 M 4192.7 3091.46 L 4194.54 3091.46 L 4195.15 3091.66 L 4195.36 3091.87 L 4195.56 3092.28 L 4195.56 3092.89 L 4195.36 3093.3 L 4195.15 3093.5 L 4194.54 3093.71 L 4192.7 3093.71 M 4196.91 3091.46 L 4196.91 3095.75 M 4196.91 3091.46 L 4198.75 3091.46 L 4199.37 3091.66 L 4199.57 3091.87 L 4199.78 3092.28 L 4199.78 3092.69 L 4199.57 3093.1 L 4199.37 3093.3 L 4198.75 3093.5 M 4196.91 3093.5 L 4198.75 3093.5 L 4199.37 3093.71 L 4199.57 3093.91 L 4199.78 3094.32 L 4199.78 3094.94 L 4199.57 3095.35 L 4199.37 3095.55 L 4198.75 3095.75 L 4196.91 3095.75 M 4201.13 3091.46 L 4201.13 3095.75 M 4201.13 3091.46 L 4203.79 3091.46 M 4201.13 3093.5 L 4202.76 3093.5 M 4205.14 3093.91 L 4208.82 3093.91 M 4210.17 3091.46 L 4211.8 3095.75 M 4213.44 3091.46 L 4211.8 3095.75 M 4214.79 3091.46 L 4214.79 3095.75 M 4214.79 3091.46 L 4216.63 3091.46 L 4217.25 3091.66 L 4217.45 3091.87 L 4217.65 3092.28 L 4217.65 3092.69 L 4217.45 3093.1 L 4217.25 3093.3 L 4216.63 3093.5 M 4214.79 3093.5 L 4216.63 3093.5 L 4217.25 3093.71 L 4217.45 3093.91 L 4217.65 3094.32 L 4217.65 3094.94 L 4217.45 3095.35 L 4217.25 3095.55 L 4216.63 3095.75 L 4214.79 3095.75" fill="none"  stroke-width="0.6" c_note="note_name" /></g><g c_partid="part_pcbtext" c_etype="" c_origin="4140,3123" c_rotation="0" c_mirror="0" id="gge330" locked="0" layerid="3" c_shapetype="group" ><path c_fontsize="4.5" c_fontfamily="" c_text="Q4" d="M 4141.23 3118.46 L 4140.82 3118.66 L 4140.41 3119.07 L 4140.2 3119.48 L 4140 3120.1 L 4140 3121.12 L 4140.2 3121.73 L 4140.41 3122.14 L 4140.82 3122.55 L 4141.23 3122.75 L 4142.05 3122.75 L 4142.45 3122.55 L 4142.86 3122.14 L 4143.07 3121.73 L 4143.27 3121.12 L 4143.27 3120.1 L 4143.07 3119.48 L 4142.86 3119.07 L 4142.45 3118.66 L 4142.05 3118.46 L 4141.23 3118.46 M 4141.84 3121.94 L 4143.07 3123.16 M 4146.67 3118.46 L 4144.62 3121.32 L 4147.69 3121.32 M 4146.67 3118.46 L 4146.67 3122.75" fill="none"  stroke-width="0.6" c_note="note_pre" /></g><g c_partid="part_pcbtext" c_etype="" c_origin="4157,3088.5" c_rotation="90" c_mirror="0" id="gge429" locked="0" layerid="3" c_shapetype="group" display="none"><path c_fontsize="4.5" c_fontfamily="" c_text="HDGCPH-PZ01-02" d="M 4152.46 3088.5 L 4156.75 3088.5 M 4152.46 3085.64 L 4156.75 3085.64 M 4154.5 3088.5 L 4154.5 3085.64 M 4152.46 3084.29 L 4156.75 3084.29 M 4152.46 3084.29 L 4152.46 3082.85 L 4152.66 3082.24 L 4153.07 3081.83 L 4153.48 3081.63 L 4154.1 3081.42 L 4155.12 3081.42 L 4155.73 3081.63 L 4156.14 3081.83 L 4156.55 3082.24 L 4156.75 3082.85 L 4156.75 3084.29 M 4153.48 3077 L 4153.07 3077.21 L 4152.66 3077.62 L 4152.46 3078.03 L 4152.46 3078.85 L 4152.66 3079.25 L 4153.07 3079.66 L 4153.48 3079.87 L 4154.1 3080.07 L 4155.12 3080.07 L 4155.73 3079.87 L 4156.14 3079.66 L 4156.55 3079.25 L 4156.75 3078.85 L 4156.75 3078.03 L 4156.55 3077.62 L 4156.14 3077.21 L 4155.73 3077 L 4155.12 3077 M 4155.12 3078.03 L 4155.12 3077 M 4153.48 3072.59 L 4153.07 3072.79 L 4152.66 3073.2 L 4152.46 3073.61 L 4152.46 3074.43 L 4152.66 3074.84 L 4153.07 3075.25 L 4153.48 3075.45 L 4154.1 3075.65 L 4155.12 3075.65 L 4155.73 3075.45 L 4156.14 3075.25 L 4156.55 3074.84 L 4156.75 3074.43 L 4156.75 3073.61 L 4156.55 3073.2 L 4156.14 3072.79 L 4155.73 3072.59 M 4152.46 3071.24 L 4156.75 3071.24 M 4152.46 3071.24 L 4152.46 3069.4 L 4152.66 3068.78 L 4152.87 3068.58 L 4153.28 3068.37 L 4153.89 3068.37 L 4154.3 3068.58 L 4154.5 3068.78 L 4154.71 3069.4 L 4154.71 3071.24 M 4152.46 3067.02 L 4156.75 3067.02 M 4152.46 3064.16 L 4156.75 3064.16 M 4154.5 3067.02 L 4154.5 3064.16 M 4154.91 3062.81 L 4154.91 3059.13 M 4152.46 3057.78 L 4156.75 3057.78 M 4152.46 3057.78 L 4152.46 3055.94 L 4152.66 3055.32 L 4152.87 3055.12 L 4153.28 3054.91 L 4153.89 3054.91 L 4154.3 3055.12 L 4154.5 3055.32 L 4154.71 3055.94 L 4154.71 3057.78 M 4152.46 3050.7 L 4156.75 3053.56 M 4152.46 3053.56 L 4152.46 3050.7 M 4156.75 3053.56 L 4156.75 3050.7 M 4152.46 3048.12 L 4152.66 3048.74 L 4153.28 3049.15 L 4154.3 3049.35 L 4154.91 3049.35 L 4155.94 3049.15 L 4156.55 3048.74 L 4156.75 3048.12 L 4156.75 3047.71 L 4156.55 3047.1 L 4155.94 3046.69 L 4154.91 3046.49 L 4154.3 3046.49 L 4153.28 3046.69 L 4152.66 3047.1 L 4152.46 3047.71 L 4152.46 3048.12 M 4153.28 3045.14 L 4153.07 3044.73 L 4152.46 3044.11 L 4156.75 3044.11 M 4154.91 3042.76 L 4154.91 3039.08 M 4152.46 3036.5 L 4152.66 3037.12 L 4153.28 3037.53 L 4154.3 3037.73 L 4154.91 3037.73 L 4155.94 3037.53 L 4156.55 3037.12 L 4156.75 3036.5 L 4156.75 3036.1 L 4156.55 3035.48 L 4155.94 3035.07 L 4154.91 3034.87 L 4154.3 3034.87 L 4153.28 3035.07 L 4152.66 3035.48 L 4152.46 3036.1 L 4152.46 3036.5 M 4153.48 3033.31 L 4153.28 3033.31 L 4152.87 3033.11 L 4152.66 3032.9 L 4152.46 3032.5 L 4152.46 3031.68 L 4152.66 3031.27 L 4152.87 3031.06 L 4153.28 3030.86 L 4153.69 3030.86 L 4154.1 3031.06 L 4154.71 3031.47 L 4156.75 3033.52 L 4156.75 3030.65" fill="none"  stroke-width="0.6" c_note="note_name" /></g><g c_partid="part_pcbtext" c_etype="" c_origin="4151.5,3085.5" c_rotation="0" c_mirror="0" id="gge435" locked="0" layerid="3" c_shapetype="group" ><path c_fontsize="4.5" c_fontfamily="" c_text="GND" d="M 4154.57 3081.98 L 4154.36 3081.57 L 4153.95 3081.16 L 4153.55 3080.96 L 4152.73 3080.96 L 4152.32 3081.16 L 4151.91 3081.57 L 4151.7 3081.98 L 4151.5 3082.6 L 4151.5 3083.62 L 4151.7 3084.23 L 4151.91 3084.64 L 4152.32 3085.05 L 4152.73 3085.25 L 4153.55 3085.25 L 4153.95 3085.05 L 4154.36 3084.64 L 4154.57 3084.23 L 4154.57 3083.62 M 4153.55 3083.62 L 4154.57 3083.62 M 4155.92 3080.96 L 4155.92 3085.25 M 4155.92 3080.96 L 4158.78 3085.25 M 4158.78 3080.96 L 4158.78 3085.25 M 4160.13 3080.96 L 4160.13 3085.25 M 4160.13 3080.96 L 4161.56 3080.96 L 4162.18 3081.16 L 4162.59 3081.57 L 4162.79 3081.98 L 4163 3082.6 L 4163 3083.62 L 4162.79 3084.23 L 4162.59 3084.64 L 4162.18 3085.05 L 4161.56 3085.25 L 4160.13 3085.25" fill="none"  stroke-width="0.6" c_note="note_pre" /></g><g c_partid="part_pcbtext" c_etype="" c_origin="4096.317,3055.277" c_rotation="0" c_mirror="0" id="gge498" locked="0" layerid="3" c_shapetype="group" display="none"><path c_fontsize="4.5" c_fontfamily="" c_text="LM7805D2TRG" d="M 4096.317 3050.737 L 4096.317 3055.027 M 4096.317 3055.027 L 4098.767 3055.027 M 4100.117 3050.737 L 4100.117 3055.027 M 4100.117 3050.737 L 4101.757 3055.027 M 4103.397 3050.737 L 4101.757 3055.027 M 4103.397 3050.737 L 4103.397 3055.027 M 4107.607 3050.737 L 4105.567 3055.027 M 4104.747 3050.737 L 4107.607 3050.737 M 4109.977 3050.737 L 4109.367 3050.937 L 4109.167 3051.347 L 4109.167 3051.757 L 4109.367 3052.167 L 4109.777 3052.377 L 4110.597 3052.577 L 4111.207 3052.777 L 4111.617 3053.187 L 4111.817 3053.597 L 4111.817 3054.217 L 4111.617 3054.627 L 4111.417 3054.827 L 4110.797 3055.027 L 4109.977 3055.027 L 4109.367 3054.827 L 4109.167 3054.627 L 4108.957 3054.217 L 4108.957 3053.597 L 4109.167 3053.187 L 4109.567 3052.777 L 4110.187 3052.577 L 4111.007 3052.377 L 4111.417 3052.167 L 4111.617 3051.757 L 4111.617 3051.347 L 4111.417 3050.937 L 4110.797 3050.737 L 4109.977 3050.737 M 4114.397 3050.737 L 4113.787 3050.937 L 4113.377 3051.557 L 4113.167 3052.577 L 4113.167 3053.187 L 4113.377 3054.217 L 4113.787 3054.827 L 4114.397 3055.027 L 4114.807 3055.027 L 4115.417 3054.827 L 4115.827 3054.217 L 4116.037 3053.187 L 4116.037 3052.577 L 4115.827 3051.557 L 4115.417 3050.937 L 4114.807 3050.737 L 4114.397 3050.737 M 4119.837 3050.737 L 4117.797 3050.737 L 4117.587 3052.577 L 4117.797 3052.377 L 4118.407 3052.167 L 4119.017 3052.167 L 4119.637 3052.377 L 4120.047 3052.777 L 4120.247 3053.397 L 4120.247 3053.807 L 4120.047 3054.417 L 4119.637 3054.827 L 4119.017 3055.027 L 4118.407 3055.027 L 4117.797 3054.827 L 4117.587 3054.627 L 4117.387 3054.217 M 4121.597 3050.737 L 4121.597 3055.027 M 4121.597 3050.737 L 4123.027 3050.737 L 4123.647 3050.937 L 4124.057 3051.347 L 4124.257 3051.757 L 4124.467 3052.377 L 4124.467 3053.397 L 4124.257 3054.007 L 4124.057 3054.417 L 4123.647 3054.827 L 4123.027 3055.027 L 4121.597 3055.027 M 4126.017 3051.757 L 4126.017 3051.557 L 4126.217 3051.147 L 4126.427 3050.937 L 4126.837 3050.737 L 4127.657 3050.737 L 4128.067 3050.937 L 4128.267 3051.147 L 4128.467 3051.557 L 4128.467 3051.967 L 4128.267 3052.377 L 4127.857 3052.987 L 4125.817 3055.027 L 4128.677 3055.027 M 4131.457 3050.737 L 4131.457 3055.027 M 4130.027 3050.737 L 4132.887 3050.737 M 4134.237 3050.737 L 4134.237 3055.027 M 4134.237 3050.737 L 4136.077 3050.737 L 4136.697 3050.937 L 4136.897 3051.147 L 4137.107 3051.557 L 4137.107 3051.967 L 4136.897 3052.377 L 4136.697 3052.577 L 4136.077 3052.777 L 4134.237 3052.777 M 4135.667 3052.777 L 4137.107 3055.027 M 4141.517 3051.757 L 4141.317 3051.347 L 4140.907 3050.937 L 4140.497 3050.737 L 4139.677 3050.737 L 4139.267 3050.937 L 4138.867 3051.347 L 4138.657 3051.757 L 4138.457 3052.377 L 4138.457 3053.397 L 4138.657 3054.007 L 4138.867 3054.417 L 4139.267 3054.827 L 4139.677 3055.027 L 4140.497 3055.027 L 4140.907 3054.827 L 4141.317 3054.417 L 4141.517 3054.007 L 4141.517 3053.397 M 4140.497 3053.397 L 4141.517 3053.397" fill="none"  stroke-width="0.6" c_note="note_name" /></g><g c_partid="part_pcbtext" c_etype="" c_origin="4092.5,3114.5" c_rotation="0" c_mirror="0" id="gge504" locked="0" layerid="3" c_shapetype="group" ><path c_fontsize="4.5" c_fontfamily="" c_text="LDO" d="M 4092.503 3109.963 L 4092.503 3114.253 M 4092.503 3114.253 L 4094.953 3114.253 M 4096.303 3109.963 L 4096.303 3114.253 M 4096.303 3109.963 L 4097.733 3109.963 L 4098.353 3110.163 L 4098.763 3110.573 L 4098.963 3110.983 L 4099.173 3111.593 L 4099.173 3112.623 L 4098.963 3113.233 L 4098.763 3113.643 L 4098.353 3114.053 L 4097.733 3114.253 L 4096.303 3114.253 M 4101.743 3109.963 L 4101.333 3110.163 L 4100.923 3110.573 L 4100.723 3110.983 L 4100.523 3111.593 L 4100.523 3112.623 L 4100.723 3113.233 L 4100.923 3113.643 L 4101.333 3114.053 L 4101.743 3114.253 L 4102.563 3114.253 L 4102.973 3114.053 L 4103.383 3113.643 L 4103.583 3113.233 L 4103.793 3112.623 L 4103.793 3111.593 L 4103.583 3110.983 L 4103.383 3110.573 L 4102.973 3110.163 L 4102.563 3109.963 L 4101.743 3109.963" fill="none"  stroke-width="0.6" c_note="note_pre" /></g><circle cx="4078.771" cy="3129.047" r="0.984" stroke-width="1.9685" fill="none" layerid="3" id="gge543" locked="0"  /><polyline points="4047.56 3046.11 4047.56 3045.5 4177.48 3045.5 4177.48 3134.5 4047.56 3134.5 4047.56 3046.11" stroke-width="1"  stroke-linecap="round" fill="none" layerid="10" net="" id="gge618" locked="0" /></svg>